# xmcd
#
# Track frame offsets:
#	150
#	25355
#	53041
#	77872
#	102648
#	106810
#	111381
#	120582
#	149878
#	165574
#	193021
#	196146
#	217923
#	256584
#	263649
#	276764
#	294090
#
# Disc length: 4229 seconds
#
# Revision: 0
# Processed by: cddbd v1.5PL3 Copyright (c) Steve Scherf et al.
# Submitted via: dBpowerAMP V4.0
#
DISCID=f5108311
DTITLE=Stevie Ray Vaughan - Life Without You disc 4
DYEAR=1900
DGENRE=Blues
TTITLE0=Testify - Third Stone From The Sun
TTITLE1=Shuffle
TTITLE2=Life Without You (tk 27)
TTITLE3=Life Without You (tk 31)
TTITLE4=You've Got Me Floating
TTITLE5=Little Wing (tk 1)
TTITLE6=Little Wing (tk 2)
TTITLE7=Little Wing (tk 3)
TTITLE8=Third Stone From The Sun (tk 1)
TTITLE9=Third Stone From The Sun (tk 2)
TTITLE10=Say What (tk 14)
TTITLE11=Come On (Pt 3 tk 4)
TTITLE12=Jam
TTITLE13=Empty Arms (tk 40)
TTITLE14=Rude Mood
TTITLE15=Pride And Joy
TTITLE16=Untitled Blues Jam
EXTD=
EXTT0=
EXTT1=
EXTT2=
EXTT3=
EXTT4=
EXTT5=
EXTT6=
EXTT7=
EXTT8=
EXTT9=
EXTT10=
EXTT11=
EXTT12=
EXTT13=
EXTT14=
EXTT15=
EXTT16=
PLAYORDER=
